<?xml version="1.0" encoding="utf-8"?>
<svg xmlns="http://www.w3.org/2000/svg" width="65" height="16" viewBox="0 0 65 16" fill="none">
<path d="M6.2594 14.1754C9.71635 14.1754 12.5188 11.3763 12.5188 7.92362C12.5188 4.47087 9.71635 1.67188 6.2594 1.67188C2.80243 1.67188 0 4.47087 0 7.92362C0 11.3763 2.80243 14.1754 6.2594 14.1754Z" fill="#171717"/>
<path d="M28.6022 8.6921C28.3931 8.48564 28.1621 8.3122 27.9145 8.16354C28.5416 7.83868 29.0588 7.40643 29.4604 6.8641C29.9583 6.1896 30.2086 5.35267 30.2086 4.35331C30.2086 3.48609 30.0023 2.73176 29.5924 2.08479C29.1963 1.43782 28.6242 0.947779 27.876 0.609153C27.1277 0.256761 26.2393 0.0805664 25.2133 0.0805664H19.1836V15.4977H21.4722V10.0356C21.4722 9.69422 21.7473 9.41891 22.0884 9.41891H25.3233C25.9697 9.41891 26.4978 9.63918 26.9077 10.0796C27.3341 10.5064 27.5679 11.0625 27.6119 11.7535L27.92 15.4977H30.1866L29.8785 11.5553C29.7905 10.3797 29.3641 9.42719 28.6022 8.6921ZM26.7097 7.04029C26.2998 7.27429 25.7771 7.39266 25.1472 7.39266H22.0884C21.7473 7.39266 21.4722 7.11735 21.4722 6.776V2.6822C21.4722 2.34082 21.7473 2.06552 22.0884 2.06552H25.1472C26.0852 2.06552 26.7839 2.31605 27.2378 2.81435C27.6917 3.29888 27.92 3.92935 27.92 4.70844C27.92 5.19297 27.8182 5.64175 27.6119 6.05195C27.4221 6.46214 27.1195 6.79249 26.7097 7.04302V7.04029Z" fill="#171717"/>
<path d="M46.1602 6.86665C46.1602 6.05999 46.3719 5.44881 46.7983 5.03861C47.2246 4.61189 47.8327 4.3999 48.6249 4.3999H52.1678V6.42615H48.5148V15.5002H46.1602V6.86665Z" fill="#171717"/>
<path d="M59.7438 10.6107C59.5981 10.3326 59.4219 10.1922 59.2157 10.1922C59.0396 10.1922 58.8635 10.2803 58.6874 10.4565L56.751 12.4828V15.5001H54.4844V0.0830078H56.751V9.72969L61.7682 4.39979H64.5632L61.5044 7.63739C61.2842 7.87139 61.1741 8.10815 61.1741 8.34215C61.1741 8.50458 61.2266 8.68078 61.3282 8.87075L64.9371 15.5001H62.3186L59.7438 10.6107Z" fill="#171717"/>
<path d="M38.1659 15.7665C34.9795 15.7665 32.3867 13.1716 32.3867 9.9824C32.3867 6.79317 34.9795 4.19824 38.1659 4.19824C41.3526 4.19824 43.9453 6.79317 43.9453 9.9824C43.9453 13.1716 41.3526 15.7665 38.1659 15.7665ZM38.1659 6.28796C36.1303 6.28796 34.4747 7.94556 34.4747 9.9824C34.4747 12.0192 36.131 13.6769 38.1659 13.6769C40.2012 13.6769 41.8573 12.0198 41.8573 9.9824C41.8573 7.94493 40.2012 6.28796 38.1659 6.28796Z" fill="#171717"/>
</svg>
